<?xml version="1.0" standalone="no"?>
<!DOCTYPE svg PUBLIC "-//W3C//DTD SVG 20010904//EN"
 "http://www.w3.org/TR/2001/REC-SVG-20010904/DTD/svg10.dtd">
<svg version="1.0" xmlns="http://www.w3.org/2000/svg"
 width="401.000000pt" height="348.000000pt" viewBox="0 0 401.000000 348.000000"
 preserveAspectRatio="xMidYMid meet">

<g transform="translate(0.000000,348.000000) scale(0.100000,-0.100000)"
fill="#000000" stroke="none">
<path d="M489 2508 l-396 -793 393 -792 393 -793 1113 0 1113 0 394 792 394
792 -397 793 -396 793 -1108 0 -1107 0 -396 -792z m2126 632 c3 -5 2 -10 -2
-10 -5 0 -62 -7 -127 -16 -65 -8 -126 -13 -135 -11 -17 4 91 23 178 32 30 3
57 7 59 10 8 8 20 6 27 -5z m-360 -55 c-77 -13 -151 -18 -130 -9 18 7 129 22
170 22 26 0 12 -5 -40 -13z m-145 -13 c0 -4 -64 -16 -142 -26 -79 -10 -235
-30 -348 -46 -275 -38 -290 -40 -290 -31 0 4 114 22 253 40 197 26 448 59 520
70 4 1 7 -3 7 -7z m-791 -106 c-11 -9 -69 -14 -69 -6 0 6 17 10 37 10 20 0 34
-2 32 -4z m-80 -10 c-5 -6 -36 -11 -134 -25 -86 -13 -85 -13 -85 -2 0 4 37 13
83 18 98 12 142 15 136 9z m-244 -36 c-28 -12 -55 -12 -55 0 0 6 17 10 38 9
30 0 33 -2 17 -9z m961 -45 c3 -8 79 -64 167 -124 89 -59 231 -155 314 -212
84 -57 218 -148 298 -203 l145 -99 1 -101 c0 -55 2 -108 4 -117 1 -9 6 -106 9
-215 4 -109 9 -224 11 -254 2 -30 7 -135 11 -232 5 -134 10 -180 20 -189 17
-14 12 -18 -86 -71 -36 -19 -123 -68 -195 -108 -71 -40 -173 -97 -225 -125
-52 -29 -162 -91 -245 -137 -82 -46 -179 -99 -215 -117 l-66 -34 -61 44 c-33
24 -244 167 -468 318 -224 151 -409 280 -410 285 -2 6 -9 128 -15 271 -6 143
-17 395 -25 559 -8 165 -13 301 -12 302 9 8 1024 573 1030 573 4 1 10 -6 13
-14z m1404 -964 c0 -4 -36 -111 -79 -237 -44 -126 -116 -337 -160 -469 -45
-132 -97 -283 -115 -335 -19 -52 -47 -134 -63 -182 -23 -72 -32 -88 -49 -88
-19 0 -257 -32 -629 -85 -93 -13 -195 -27 -225 -30 -30 -3 -100 -12 -155 -20
-421 -58 -576 -77 -582 -71 -18 17 17 41 68 48 30 4 70 9 89 12 19 3 53 7 75
10 22 3 108 15 190 25 83 11 209 27 280 36 72 9 141 18 155 20 14 2 111 16
215 30 105 14 217 30 250 35 33 5 96 14 140 20 123 16 148 21 141 27 -3 3 -1
12 5 20 6 7 9 13 6 13 -6 0 44 149 138 415 31 88 69 198 85 245 16 47 35 101
43 120 8 19 12 41 10 48 -3 6 1 12 8 12 7 0 10 3 6 6 -3 3 19 76 50 162 30 87
58 166 61 177 9 34 42 63 42 36z m-1277 -1498 c-7 -2 -19 -2 -25 0 -7 3 -2 5
12 5 14 0 19 -2 13 -5z m-216 -29 c-3 -3 -12 -4 -19 -1 -8 3 -5 6 6 6 11 1 17
-2 13 -5z m-74 -11 c-7 -2 -21 -2 -30 0 -10 3 -4 5 12 5 17 0 24 -2 18 -5z
m-76 -9 c-3 -3 -12 -4 -19 -1 -8 3 -5 6 6 6 11 1 17 -2 13 -5z m-70 -10 c-3
-3 -12 -4 -19 -1 -8 3 -5 6 6 6 11 1 17 -2 13 -5z m-217 -24 c-8 -5 -19 -10
-25 -10 -5 0 -3 5 5 10 8 5 20 10 25 10 6 0 3 -5 -5 -10z m73 3 c-7 -2 -19 -2
-25 0 -7 3 -2 5 12 5 14 0 19 -2 13 -5z"/>
<path d="M1663 2527 c3 -11 75 -34 582 -184 105 -31 193 -59 198 -63 8 -7 67
-163 197 -521 86 -238 95 -257 105 -247 6 6 -252 724 -276 770 -11 21 -28 26
-782 249 -21 6 -27 5 -24 -4z"/>
<path d="M980 2248 c0 -12 4 -111 10 -218 9 -191 11 -236 30 -624 5 -103 10
-190 12 -192 8 -8 830 -565 849 -575 28 -14 39 -1 14 18 -62 45 -643 440 -768
522 -39 26 -69 53 -72 65 -2 12 -11 208 -20 436 -20 501 -26 582 -42 588 -8 2
-13 -5 -13 -20z"/>
<path d="M1929 1988 c-11 -20 -10 -21 3 -10 13 10 34 -19 151 -215 74 -125
133 -231 131 -235 -8 -13 -542 -10 -546 3 -2 7 -9 5 -17 -5 -12 -15 12 -16
293 -16 l307 0 -13 23 c-53 96 -284 477 -290 477 -4 0 -13 -10 -19 -22z"/>
<path d="M1951 1908 c-1 -9 42 -88 94 -175 52 -87 97 -162 99 -168 2 -5 6 -7
10 -4 4 4 -38 80 -92 171 -55 90 -102 171 -105 179 -4 11 -6 10 -6 -3z"/>
<path d="M1196 1813 c19 -54 78 -215 132 -357 l97 -260 340 -101 c409 -122
398 -119 393 -104 -2 7 -161 59 -354 116 -192 57 -354 110 -359 118 -6 7 -66
164 -134 349 -78 211 -129 336 -137 336 -10 0 -4 -27 22 -97z"/>
</g>
</svg>
